<?xml version="1.0" encoding="utf-8"?>
<!-- Generator: Adobe Illustrator 19.0.0, SVG Export Plug-In . SVG Version: 6.00 Build 0)  -->
<svg version="1.1" id="Capa_1" xmlns="http://www.w3.org/2000/svg" xmlns:xlink="http://www.w3.org/1999/xlink" x="0px" y="0px"
	 viewBox="0 0 164 164" style="enable-background:new 0 0 164 164;" xml:space="preserve">
<style type="text/css">
	.st0{fill:#B3B3B3;}
	.st1{fill:#A6120D;}
	.st2{fill:#DD1B16;}
	.st3{fill:#F2F2F2;}
</style>
<g id="XMLID_7_">
	<polygon id="XMLID_6_" class="st0" points="81.8,1.1 5.6,27.9 17.6,127.6 81.8,162.9 146.4,127.2 158.4,27.4 	"/>
	<polygon id="XMLID_5_" class="st1" points="150.8,33.2 81.6,9.6 81.6,154.5 139.6,122.4 	"/>
	<polygon id="XMLID_4_" class="st2" points="14.2,33.6 24.5,122.8 81.6,154.5 81.6,9.6 	"/>
	<path id="XMLID_11_" class="st3" d="M100.6,86.7l-19.1,8.9H61.5l-9.4,23.6l-17.6,0.3L81.6,14.8L100.6,86.7z M98.8,82.2L81.7,48.4
		l-14,33.2h13.9L98.8,82.2z"/>
	<polygon id="XMLID_1_" class="st0" points="81.6,14.8 81.7,48.4 97.6,81.7 81.6,81.7 81.6,95.6 103.7,95.6 114,119.6 130.8,119.9 	
		"/>
</g>
</svg>
