<?xml version="1.0" encoding="utf-8"?>
<!-- Generator: Adobe Illustrator 19.0.0, SVG Export Plug-In . SVG Version: 6.00 Build 0)  -->
<svg version="1.1" id="Layer_1" xmlns="http://www.w3.org/2000/svg" xmlns:xlink="http://www.w3.org/1999/xlink" x="0px" y="0px"
	 viewBox="359.8 -138.6 440 621.1" style="enable-background:new 359.8 -138.6 440 621.1;" xml:space="preserve">
<style type="text/css">
	.st0{filter:url(#drop-shadow);}
	.st1{fill:#E44D26;}
	.st2{fill:#F16529;}
	.st3{fill:#EBEBEB;}
	.st4{fill:#FFFFFF;}
</style>
<filter  height="150%" width="150%" id="drop-shadow" y="-5%" x="-5%">
	<feFlood  id="dropShadowColor" result="floodFill" flood-color="black" flood-opacity="0.5"></feFlood>
	<feComposite  in="floodFill" result="coloredAlpha" operator="in" in2="SourceAlpha"></feComposite>
	<feGaussianBlur  in="coloredAlpha" result="blur" stdDeviation="8"></feGaussianBlur>
	<feComposite  in="blur" result="maskedOffsetBlur" operator="out" in2="SourceGraphic"></feComposite>
	<feMerge>
		<feMergeNode  in="maskedOffsetBlur"></feMergeNode>
		<feMergeNode  in="SourceGraphic"></feMergeNode>
	</feMerge>
</filter>
<g id="logo" class="st0">
	<polygon class="st1" points="399.8,432.6 359.8,-16.5 799.8,-16.5 759.7,432.5 579.5,482.5 	"/>
	<polygon class="st2" points="579.8,444.3 725.4,403.9 759.7,20.2 579.8,20.2 	"/>
	<polygon class="st3" points="579.8,186.8 506.9,186.8 501.9,130.4 579.8,130.4 579.8,75.3 579.6,75.3 441.7,75.3 443,90 
		456.5,241.8 579.8,241.8 	"/>
	<polygon class="st3" points="579.8,329.8 579.6,329.9 518.2,313.3 514.3,269.4 484.5,269.4 459,269.4 466.7,355.9 579.6,387.2 
		579.8,387.1 	"/>
	<path d="M400.7-138.6h28v27.7h25.6v-27.7h28v83.8h-28v-28h-25.6v28h-28L400.7-138.6L400.7-138.6z"/>
	<path d="M519.1-110.8h-24.6v-27.8h77.3v27.8h-24.7v56h-28L519.1-110.8L519.1-110.8z"/>
	<path d="M584.1-138.6h29.2l18,29.4l17.9-29.4h29.2v83.8h-27.9v-41.5l-19.3,29.8h-0.5l-19.3-29.8v41.5h-27.4L584.1-138.6
		L584.1-138.6z"/>
	<path d="M692.3-138.6h28v56.1h39.4v27.7h-67.4V-138.6z"/>
	<polygon class="st4" points="579.6,186.8 579.6,241.8 647.4,241.8 641.1,313.3 579.6,329.9 579.6,387.2 692.5,355.9 693.4,346.6 
		706.3,201.6 707.7,186.8 692.8,186.8 	"/>
	<polygon class="st4" points="579.6,75.3 579.6,109.5 579.6,130.2 579.6,130.4 712.5,130.4 712.5,130.4 712.7,130.4 713.8,118 
		716.3,90 717.6,75.3 	"/>
</g>
</svg>
