<?xml version="1.0" encoding="utf-8"?>
<!-- Generator: Adobe Illustrator 19.0.0, SVG Export Plug-In . SVG Version: 6.00 Build 0)  -->
<svg version="1.1" id="Capa_1" xmlns="http://www.w3.org/2000/svg" xmlns:xlink="http://www.w3.org/1999/xlink" x="0px" y="0px"
	 viewBox="174 10.2 63.6 142.1" style="enable-background:new 174 10.2 63.6 142.1;" xml:space="preserve">
<style type="text/css">
	.st0{fill:#FFFFFF;}
	.st1{fill:#A6A385;}
	.st2{fill:#499D4A;}
	.st3{fill:#58AA50;}
</style>
<g>
	<path class="st0" d="M209.1,152.3l-3.8-1.3c0,0,0.5-19.3-6.5-20.7c-4.6-5.4,0.7-227,17.3-0.7c0,0-5.7,2.9-6.7,7.8
		C208.3,142.2,209.1,152.3,209.1,152.3L209.1,152.3L209.1,152.3z"/>
	<path class="st1" d="M209.1,152.3l-3.8-1.3c0,0,0.5-19.3-6.5-20.7c-4.6-5.4,0.7-227,17.3-0.7c0,0-5.7,2.9-6.7,7.8
		C208.3,142.2,209.1,152.3,209.1,152.3L209.1,152.3L209.1,152.3z"/>
	<path class="st0" d="M211.1,133.7c0,0,33.1-21.8,25.4-67.1c-7.5-32.9-25.1-43.7-27-47.9c-2.1-3-4.2-8.1-4.2-8.1l1.4,91.6
		C206.7,102.3,203.8,130.3,211.1,133.7"/>
	<path class="st2" d="M211.1,133.7c0,0,33.1-21.8,25.4-67.1c-7.5-32.9-25.1-43.7-27-47.9c-2.1-3-4.2-8.1-4.2-8.1l1.4,91.6
		C206.7,102.3,203.8,130.3,211.1,133.7"/>
	<path class="st0" d="M203.3,134.9c0,0-31.1-21.2-29.3-58.6c1.8-37.4,23.7-55.7,28-59.1c2.8-3,2.9-4.1,3-7
		c1.9,4.2,1.6,62.1,1.8,68.9C207.8,105.4,205.5,129.9,203.3,134.9L203.3,134.9L203.3,134.9z"/>
	<path class="st3" d="M203.3,134.9c0,0-31.1-21.2-29.3-58.6c1.8-37.4,23.7-55.7,28-59.1c2.8-3,2.9-4.1,3-7
		c1.9,4.2,1.6,62.1,1.8,68.9C207.8,105.4,205.5,129.9,203.3,134.9L203.3,134.9L203.3,134.9z"/>
</g>
</svg>
