<?xml version="1.0" encoding="utf-8"?>
<!-- Generator: Adobe Illustrator 19.0.0, SVG Export Plug-In . SVG Version: 6.00 Build 0)  -->
<svg version="1.1" id="Layer_1" xmlns="http://www.w3.org/2000/svg" xmlns:xlink="http://www.w3.org/1999/xlink" x="0px" y="0px"
	 viewBox="0 0 567.1 443.4" style="enable-background:new 0 0 567.1 443.4;" xml:space="preserve">
<style type="text/css">
	.st0{fill:#263238;}
	.st1{fill:#2B3844;}
	.st2{fill:#1CBB9B;}
	.st3{fill:#ECEFF1;}
	.st4{fill:#37474F;}
	.st5{fill:#B0BEC5;}
	.st6{fill:#455A64;}
	.st7{fill:#FFFFFF;}
	.st8{fill:#354350;}
</style>
<polygon class="st0" points="321.1,354.4 252.7,354.4 251.8,360 322.2,361.2 "/>
<polygon class="st0" points="333.4,428.6 322.2,361.2 251.8,360 240.4,428.6 "/>
<path class="st0" d="M0,314.2V341c0,7.4,6,13.4,13.4,13.4h540.4c7.4,0,13.4-6,13.4-13.4v-26.7H0z"/>
<path class="st0" d="M567.1,13.4c0-7.4-6-13.4-13.4-13.4H13.4C6,0,0,6,0,13.4v300.9h567.1V13.4z"/>
<path class="st1" d="M13.4,314.2c-1.2,0-2.2-1-2.2-2.2V13.4c0-1.2,1-2.2,2.2-2.2h540.4c1.2,0,2.2,1,2.2,2.2V312c0,1.2-1,2.2-2.2,2.2
	H13.4z"/>
<rect x="21.2" y="21.2" class="st2" width="524.8" height="283"/>
<path class="st3" d="M284.1,264.6c0,5.6-4.5,10.1-10.1,10.1h-38.4c-5.6,0-10.1-4.5-10.1-10.1v-43.4c0-5.6,4.5-10.1,10.1-10.1H274
	c5.6,0,10.1,4.5,10.1,10.1V264.6z"/>
<path class="st4" d="M358.2,264.6c0,5.6-4.5,10.1-10.1,10.1h-38.4c-5.6,0-10.1-4.5-10.1-10.1v-84.8c0-5.6,4.5-10.1,10.1-10.1h38.4
	c5.6,0,10.1,4.5,10.1,10.1V264.6z"/>
<path class="st5" d="M432.3,264.6c0,5.6-4.5,10.1-10.1,10.1h-38.4c-5.6,0-10.1-4.5-10.1-10.1V143c0-5.6,4.5-10.1,10.1-10.1h38.4
	c5.6,0,10.1,4.5,10.1,10.1V264.6z"/>
<path class="st6" d="M506.3,264.6c0,5.6-4.5,10.1-10.1,10.1h-38.4c-5.6,0-10.1-4.5-10.1-10.1V109.3c0-5.6,4.5-10.1,10.1-10.1h38.4
	c5.6,0,10.1,4.5,10.1,10.1V264.6z"/>
<g>
	<path class="st7" d="M269.1,180h-35.1c-2.5,0-4.5-2-4.5-4.5c0-2.5,2-4.5,4.5-4.5h31.3l32.4-32.5h33.2l32.4-32.5H398l32.4-32.5h33.2
		l31.1-31.1c1.8-1.8,4.6-1.8,6.4,0c1.8,1.8,1.8,4.6,0,6.4l-33.7,33.8h-33.2L401.8,115h-34.7l-32.4,32.5h-33.3L269.1,180z"/>
</g>
<g>
	<rect x="203.9" y="287.2" class="st7" width="312.7" height="5.5"/>
</g>
<g>
	<rect x="203.9" y="54.7" class="st7" width="5.5" height="235.3"/>
</g>
<rect x="44.8" y="61.6" class="st8" width="56.7" height="48.9"/>
<rect x="120.3" y="61.6" class="st8" width="56.7" height="48.9"/>
<rect x="44.8" y="132.9" class="st8" width="56.7" height="48.9"/>
<rect x="44.8" y="197.7" class="st8" width="132.2" height="7.1"/>
<rect x="44.8" y="215.1" class="st8" width="132.2" height="7.1"/>
<rect x="44.8" y="232.5" class="st8" width="132.2" height="7.1"/>
<rect x="44.8" y="249.9" class="st8" width="132.2" height="7.1"/>
<rect x="44.8" y="267.2" class="st8" width="56.7" height="7.1"/>
<rect x="120.3" y="132.9" class="st8" width="56.7" height="48.9"/>
<path class="st8" d="M293.6,336.1c0,5.6-4.5,10.1-10.1,10.1c-5.6,0-10.1-4.5-10.1-10.1c0-5.6,4.5-10.1,10.1-10.1
	C289.1,326,293.6,330.5,293.6,336.1z"/>
<path class="st0" d="M392.8,436.6c0-8.4-6.8-15.2-15.2-15.2H189.5c-8.4,0-15.2,6.8-15.2,15.2v6.8h218.6V436.6z"/>
</svg>
