<?xml version="1.0" encoding="utf-8"?>
<!-- Generator: Adobe Illustrator 19.0.0, SVG Export Plug-In . SVG Version: 6.00 Build 0)  -->
<svg version="1.1" id="Capa_1" xmlns="http://www.w3.org/2000/svg" xmlns:xlink="http://www.w3.org/1999/xlink" x="0px" y="0px"
	 viewBox="0 0 211.3 160.1" style="enable-background:new 0 0 211.3 160.1;" xml:space="preserve">
<style type="text/css">
	.st0{fill:#263238;}
	.st1{fill:#1CBB9B;}
</style>
<g id="XMLID_625_">
	<path id="XMLID_626_" class="st0" d="M124.4,144.5c0,4.5-3.8,6-8.5,6H18.2c-4.7,0-8.5-1.5-8.5-6V85.7c0-4.5,3.8-8.2,8.5-8.2h97.7
		c4.7,0,8.5,3.7,8.5,8.2V144.5z"/>
</g>
<g id="XMLID_623_">
	<path id="XMLID_624_" class="st1" d="M117.9,138.3c0,1.6-1.4,2.9-3,2.9H19.2c-1.7,0-3-1.3-3-2.9V87.1c0-1.6,1.4-2.9,3-2.9h95.7
		c1.7,0,3,1.3,3,2.9V138.3z"/>
</g>
<g id="XMLID_621_">
	<path id="XMLID_622_" class="st0" d="M133.6,156.1c0,1.5-1.3,2.7-2.9,2.7H3.2c-1.6,0-2.9-1.2-2.9-2.7l0,0c0-1.5,1.3-2.7,2.9-2.7
		h127.5C132.3,153.4,133.6,154.6,133.6,156.1L133.6,156.1z"/>
</g>
<g id="XMLID_288_">
	<path id="XMLID_289_" class="st1" d="M123.9,19.3c-0.1,0-0.2,0-0.3,0c-1.7-10.6-10.8-18.6-21.9-18.6c-11.1,0-20.3,8.1-21.9,18.6
		c-0.1,0-0.2,0-0.3,0c-12.3,0-22.2,9.9-22.2,22c0,10.9,8,19.9,18.5,21.7v0h0.1c1.2,0.2,2.4,0.3,3.6,0.3c1.2,0,2.4-0.1,3.6-0.3h37.2
		c1.2,0.2,2.4,0.3,3.6,0.3c12.3,0,22.2-9.9,22.2-22C146.1,29.2,136.1,19.3,123.9,19.3z"/>
</g>
<g id="_x3C_engrane1_x3E_">
	<path id="XMLID_285_" class="st0" d="M90.5,112.2c0.7,0,1.2-0.5,1.2-1.2v-3.3c0-0.7-0.5-1.2-1.2-1.2h-2.9c-0.7,0-1.4-0.5-1.6-1.2
		l-1.7-4c-0.3-0.6-0.2-1.4,0.3-1.9l2.1-2c0.5-0.5,0.5-1.2,0-1.7l-2.4-2.3c-0.5-0.5-1.2-0.5-1.7,0l-2.1,2c-0.5,0.5-1.3,0.6-1.9,0.3
		l-4.1-1.7c-0.6-0.2-1.2-0.9-1.2-1.6v-2.9c0-0.7-0.5-1.2-1.2-1.2h-3.3c-0.7,0-1.2,0.5-1.2,1.2v2.9c0,0.7-0.5,1.4-1.2,1.6l-4.1,1.7
		c-0.6,0.3-1.5,0.2-1.9-0.3l-2.1-2c-0.5-0.5-1.3-0.5-1.7,0l-2.4,2.3c-0.5,0.5-0.5,1.2,0,1.7l2.1,2c0.5,0.5,0.6,1.3,0.3,1.9l-1.7,4
		c-0.2,0.6-0.9,1.2-1.6,1.2h-2.9c-0.7,0-1.2,0.5-1.2,1.2v3.3c0,0.7,0.6,1.2,1.2,1.2h2.9c0.7,0,1.4,0.5,1.6,1.2l1.7,4
		c0.3,0.6,0.2,1.4-0.3,1.9l-2.1,2c-0.5,0.5-0.5,1.2,0,1.7l2.4,2.3c0.5,0.5,1.3,0.5,1.7,0l2.1-2c0.5-0.5,1.3-0.6,1.9-0.3l4.1,1.7
		c0.6,0.2,1.2,0.9,1.2,1.6v2.9c0,0.7,0.6,1.2,1.2,1.2h3.3c0.7,0,1.2-0.5,1.2-1.2v-2.9c0-0.7,0.5-1.4,1.2-1.6l4.1-1.7
		c0.6-0.3,1.5-0.2,1.9,0.3l2.1,2c0.5,0.5,1.3,0.5,1.7,0l2.4-2.3c0.5-0.5,0.5-1.2,0-1.7l-2.1-2c-0.5-0.5-0.6-1.3-0.3-1.9l1.7-4
		c0.2-0.6,0.9-1.2,1.6-1.2H90.5z M70.4,119c-5.4,0-9.8-4.3-9.8-9.7c0-5.3,4.4-9.7,9.8-9.7c5.4,0,9.7,4.3,9.7,9.7
		C80.2,114.7,75.8,119,70.4,119z"/>

	<animateTransform attributeName="transform" attributeType="XML" type="rotate" from="0 70.43 109.32" to="360 70.43 109.32" dur="10s" repeatCount="indefinite" />
</g>
<g id="_x3C_engrane2_x3E_">
	<g id="XMLID_277_">
		<path id="XMLID_278_" class="st0" d="M115.9,26.9h-2.1c-0.5,0-1-0.4-1.1-0.8l-1.2-2.9c-0.2-0.4-0.1-1,0.2-1.4l1.5-1.4
			c0.3-0.3,0.3-0.9,0-1.2l-1.7-1.7c-0.3-0.3-0.9-0.3-1.2,0l-1.5,1.4c-0.3,0.3-1,0.4-1.4,0.2l-2.9-1.2c-0.5-0.1-0.8-0.6-0.8-1.1v-2.1
			c0-0.5-0.4-0.9-0.9-0.9h-2.4c-0.5,0-0.9,0.4-0.9,0.9v2.1c0,0.5-0.4,1-0.8,1.1l-2.9,1.2c-0.4,0.2-1,0.1-1.4-0.2l-1.5-1.4
			c-0.3-0.3-0.9-0.3-1.2,0l-1.7,1.7c-0.3,0.3-0.3,0.9,0,1.2l1.5,1.4c0.3,0.3,0.4,1,0.2,1.4L90.6,26c-0.1,0.5-0.6,0.8-1.1,0.8h-2.1
			c-0.5,0-0.9,0.4-0.9,0.9v2.4c0,0.5,0.4,0.9,0.9,0.9h2.1c0.5,0,1,0.4,1.1,0.8l1.2,2.9c0.2,0.4,0.1,1-0.2,1.4l-1.5,1.4
			c-0.3,0.3-0.3,0.9,0,1.2l1.7,1.7c0.3,0.3,0.9,0.3,1.2,0l1.5-1.4c0.3-0.3,1-0.4,1.4-0.2l2.9,1.2c0.5,0.1,0.8,0.6,0.8,1.1V43
			c0,0.5,0.4,0.9,0.9,0.9h2.4c0.5,0,0.9-0.4,0.9-0.9V41c0-0.5,0.4-1,0.8-1.1l2.9-1.2c0.4-0.2,1-0.1,1.4,0.2l1.5,1.4
			c0.3,0.3,0.9,0.3,1.2,0l1.7-1.7c0.3-0.3,0.3-0.9,0-1.2l-1.5-1.4c-0.3-0.3-0.4-1-0.2-1.4l1.2-2.9c0.1-0.5,0.6-0.8,1.1-0.8h2.1
			c0.5,0,0.9-0.4,0.9-0.9v-2.4C116.8,27.2,116.4,26.9,115.9,26.9z M101.7,35.8c-3.8,0-6.9-3.1-6.9-6.9c0-3.8,3.1-6.9,6.9-6.9
			c3.8,0,6.9,3.1,6.9,6.9C108.6,32.7,105.5,35.8,101.7,35.8z"/>
	</g>
	<g id="XMLID_275_">
		<path id="XMLID_276_" class="st0" d="M101.7,25.2c-2.1,0-3.7,1.7-3.7,3.7c0,2.1,1.7,3.7,3.7,3.7c2.1,0,3.7-1.7,3.7-3.7
			C105.4,26.8,103.7,25.2,101.7,25.2z"/>
	</g>
	<animateTransform attributeName="transform" attributeType="XML" type="rotate" from="0 101.68 28.89" to="360 101.68 28.89" dur="8s" repeatCount="indefinite" />
</g>
<g id="_x3C_engrane3_x3E_">
	<path id="XMLID_271_" class="st0" d="M202.9,80.1h-3c-0.7,0-1.4-0.5-1.6-1.2l-1.7-4.1c-0.3-0.6-0.2-1.5,0.3-2l2.1-2.1
		c0.5-0.5,0.5-1.3,0-1.8l-2.4-2.4c-0.5-0.5-1.3-0.5-1.8,0l-2.1,2.1c-0.5,0.5-1.4,0.6-2,0.3l-4.2-1.7c-0.7-0.2-1.2-0.9-1.2-1.6v-3
		c0-0.7-0.6-1.2-1.3-1.2h-3.4c-0.7,0-1.3,0.6-1.3,1.2v3c0,0.7-0.5,1.4-1.2,1.6l-4.2,1.7c-0.6,0.3-1.5,0.2-2-0.3l-2.1-2.1
		c-0.5-0.5-1.3-0.5-1.8,0l-2.4,2.4c-0.5,0.5-0.5,1.3,0,1.8l2.1,2.1c0.5,0.5,0.6,1.4,0.3,2l-1.7,4.1c-0.2,0.7-0.9,1.2-1.6,1.2h-3
		c-0.7,0-1.2,0.6-1.2,1.2v3.4c0,0.7,0.6,1.2,1.2,1.2h3c0.7,0,1.4,0.5,1.6,1.2l1.7,4.1c0.3,0.6,0.2,1.5-0.3,2l-2.1,2.1
		c-0.5,0.5-0.5,1.3,0,1.8l2.4,2.4c0.5,0.5,1.3,0.5,1.8,0l2.1-2.1c0.5-0.5,1.4-0.6,2-0.3l4.2,1.7c0.7,0.2,1.2,0.9,1.2,1.6v3
		c0,0.7,0.6,1.2,1.3,1.2h3.4c0.7,0,1.3-0.6,1.3-1.2v-3c0-0.7,0.5-1.4,1.2-1.6l4.2-1.7c0.6-0.3,1.5-0.2,2,0.3l2.1,2.1
		c0.5,0.5,1.3,0.5,1.8,0l2.4-2.4c0.5-0.5,0.5-1.3,0-1.8l-2.1-2.1c-0.5-0.5-0.6-1.4-0.3-2l1.7-4.1c0.2-0.7,0.9-1.2,1.6-1.2h3
		c0.7,0,1.3-0.6,1.3-1.2v-3.4C204.2,80.7,203.6,80.1,202.9,80.1z M182.5,88.4c-3,0-5.4-2.4-5.4-5.4c0-3,2.4-5.4,5.4-5.4
		c3,0,5.4,2.4,5.4,5.4C187.8,86,185.4,88.4,182.5,88.4z"/>
				<animateTransform attributeName="transform" attributeType="XML" type="rotate" from="0 182.45 83.07" to="360 182.45 83.07" dur="10s" repeatCount="indefinite" />
</g>
<g id="XMLID_260_">
	<path id="XMLID_261_" class="st0" d="M70.1,137.1c-3.2,0-6.4-0.5-9.5-1.6c-6.7-2.4-12.2-7-15.4-13c-3.2-6.1-3.8-12.9-1.6-19.1
		l0-0.1l38.8-76.3c4.1-11.6,9.9-17,18.1-17c1.4,0,2.9,0.2,4.4,0.5l0.1-0.3c6.9,2.2,11.3,5.4,13.4,9.7c2.2,4.5,2,10.3-0.8,18.2
		l-23.5,83C90.7,130.6,81.1,137.1,70.1,137.1z M45.6,104c-2,5.7-1.5,11.9,1.5,17.5c3,5.6,8,9.9,14.3,12.1c2.9,1,5.8,1.5,8.8,1.5
		c10.1,0,19-6,22.2-14.8l23.5-83c2.6-7.4,2.9-12.7,0.9-16.7c-1.5-3.1-4.5-5.5-8.9-7.4c-11.3-3.9-18.5,0.4-23.4,14.4l-0.1,0.1
		L45.6,104z"/>
</g>
<g id="_x3C_cadena_x3E_">
	<path id="XMLID_222_" class="st0" d="M184.3,110.4l0-2c1.9,0,3.8-0.3,5.7-0.8l0.5,1.9C188.4,110.1,186.3,110.4,184.3,110.4z
		 M178.1,109.9c-2-0.4-4-1.1-5.9-2l0.9-1.8c1.7,0.8,3.6,1.4,5.4,1.8L178.1,109.9z M196.1,107.4l-0.9-1.7c1.7-0.9,3.3-2,4.7-3.2
		l1.3,1.5C199.7,105.3,198,106.4,196.1,107.4z M167.1,104.5l-4.7-3.7l1.2-1.5l4.7,3.7L167.1,104.5z M205.4,99.4l-1.6-1.1
		c0.2-0.3,0.5-0.7,0.7-1c0.8-1.2,1.5-2.6,2.1-3.9l1.8,0.8c-0.6,1.5-1.4,2.9-2.2,4.3C205.9,98.7,205.7,99,205.4,99.4z M157.8,97.1
		l-4.7-3.7l1.2-1.5l4.7,3.7L157.8,97.1z M148.5,89.7l-4.7-3.7l1.2-1.5l4.7,3.7L148.5,89.7z M210.1,88.1l-2-0.3
		c0.2-1.3,0.3-2.6,0.3-3.9c0-0.6,0-1.2-0.1-1.8l2-0.1c0,0.6,0.1,1.3,0.1,1.9C210.4,85.3,210.3,86.7,210.1,88.1z M139.2,82.3
		l-4.7-3.7l1.2-1.5l4.7,3.7L139.2,82.3z M207.3,76.6c-0.6-1.8-1.4-3.6-2.3-5.2l1.7-1c1.1,1.8,1.9,3.6,2.5,5.6L207.3,76.6z
		 M129.9,74.9l-4.7-3.7l1.2-1.5l4.7,3.7L129.9,74.9z M120.6,67.5l-4.7-3.7l1.2-1.5l4.7,3.7L120.6,67.5z M201.5,66.8
		c-1.3-1.4-2.8-2.6-4.4-3.6l1.1-1.7c1.7,1.1,3.3,2.4,4.8,3.9L201.5,66.8z M195.5,62.4l-5.2-2.9l1-1.7l5.2,2.9L195.5,62.4z
		 M111.3,60.1l-4.7-3.7l1.2-1.5l4.7,3.7L111.3,60.1z M185.1,56.5l-5.2-2.9l1-1.7l5.2,2.9L185.1,56.5z M102,52.6l-4.7-3.7l1.2-1.5
		l4.7,3.7L102,52.6z M174.8,50.7l-5.2-2.9l1-1.7l5.2,2.9L174.8,50.7z M92.6,45.2c-1.7-1.5-3.2-2.8-4.4-4.2l1.5-1.3
		c1.2,1.3,2.6,2.6,4.2,4L92.6,45.2z M164.4,44.9l-5.2-2.9l1-1.7l5.2,2.9L164.4,44.9z M154,39.1l-5.2-2.9l1-1.7l5.2,2.9L154,39.1z
		 M84.6,36.1c-1-2-1.6-4-1.6-6.1l2,0c0,1.8,0.5,3.5,1.4,5.2L84.6,36.1z M143.6,33.3l-5.2-2.9l1-1.7l5.2,2.9L143.6,33.3z M133.2,27.5
		l-5.2-2.9l1-1.7l5.2,2.9L133.2,27.5z M86,24.5l-1.9-0.7c0.6-1.5,1.3-3,2.3-4.6l-0.2-0.1c1.3-1.8,2.6-3.4,4-4.7l1.4,1.4
		c-1.1,1-2.1,2.1-3.1,3.5l0.1,0.1C87.5,21.3,86.6,22.9,86,24.5z M122.8,21.6l-5.2-2.9l1-1.7l5.2,2.9L122.8,21.6z M112.5,15.7
		c-1.9-1.1-3.6-1.9-5.2-2.5l0.7-1.9c1.7,0.6,3.5,1.5,5.5,2.6L112.5,15.7z M96.3,12.8L95.6,11c2-0.8,4.1-1.1,6.3-0.9l-0.1,2
		C99.8,11.9,98,12.2,96.3,12.8z"/>
</g>
</svg>
