<?xml version="1.0" encoding="utf-8"?>
<!-- Generator: Adobe Illustrator 19.0.0, SVG Export Plug-In . SVG Version: 6.00 Build 0)  -->
<svg version="1.1" id="Capa_1" xmlns="http://www.w3.org/2000/svg" xmlns:xlink="http://www.w3.org/1999/xlink" x="0px" y="0px"
	 viewBox="0 0 189.9 226.6" style="enable-background:new 0 0 189.9 226.6;" xml:space="preserve">
<style type="text/css">
	.st0{fill:#263238;}
</style>
<g>
	<ellipse class="st0" cx="95" cy="23" rx="92" ry="23"/>
	<path class="st0" d="M95,84.1c-47.2,0-95-8.9-95-26v-23h6v23c0,8.3,33.8,20,89,20c55.1,0,89-11.6,89-20v-23h6v23
		C189.9,75.2,142.2,84.1,95,84.1z"/>
	<path class="st0" d="M95,130.6c-47.2,0-95-8.9-95-26v-23h6v23c0,8.3,33.8,20,89,20c55.1,0,89-11.6,89-20v-23h6v23
		C189.9,121.7,142.2,130.6,95,130.6z"/>
	<path class="st0" d="M95,177.1c-47.2,0-95-8.9-95-26v-23h6v23c0,8.3,33.8,20,89,20c55.1,0,89-11.6,89-20v-23h6v23
		C189.9,168.2,142.2,177.1,95,177.1z"/>
	<g>
		<circle class="st0" cx="74.9" cy="62.5" r="4.3"/>
		<circle class="st0" cx="95.2" cy="62.5" r="4.3"/>
		<circle class="st0" cx="115.5" cy="62.5" r="4.3"/>
	</g>
	<g>
		<circle class="st0" cx="74.9" cy="106.1" r="4.3"/>
		<circle class="st0" cx="95.2" cy="106.1" r="4.3"/>
		<circle class="st0" cx="115.5" cy="106.1" r="4.3"/>
	</g>
	<g>
		<circle class="st0" cx="74.9" cy="153.2" r="4.3"/>
		<circle class="st0" cx="95.2" cy="153.2" r="4.3"/>
		<circle class="st0" cx="115.5" cy="153.2" r="4.3"/>
	</g>
	<g>
		<g>
			<path class="st0" d="M103.2,204.2L103.2,204.2c0-1.6-1.3-2.9-2.8-2.9H89.5c-1.6,0-2.8,1.3-2.8,2.8v0.1c0,2.8-1.7,5.2-4.2,6.2
				c-1.5,0.6-2.4,1.9-2.4,3.5v8.4c0,2.1,1.7,3.7,3.7,3.7h22.3c2.1,0,3.7-1.7,3.7-3.7v-8.4c0-1.6-1-2.9-2.4-3.5
				C105,209.4,103.2,207,103.2,204.2z"/>
			<rect x="43" y="215.1" class="st0" width="104" height="6"/>
			<circle class="st0" cx="153.7" cy="218.1" r="8.5"/>
			<circle class="st0" cx="35.3" cy="218.1" r="8.5"/>
		</g>
		<rect x="92" y="183.5" class="st0" width="6" height="21"/>
	</g>
</g>
</svg>
