<?xml version="1.0" encoding="utf-8"?>
<!-- Generator: Adobe Illustrator 19.0.0, SVG Export Plug-In . SVG Version: 6.00 Build 0)  -->
<svg version="1.1" id="Capa_1" xmlns="http://www.w3.org/2000/svg" xmlns:xlink="http://www.w3.org/1999/xlink" x="0px" y="0px"
	 viewBox="-188 61.5 263 359.5" style="enable-background:new -188 61.5 263 359.5;" xml:space="preserve">
<style type="text/css">
	.st0{fill:#263238;}
	.st1{fill:none;stroke:#263238;stroke-width:13;stroke-miterlimit:10;}
</style>
<g id="XMLID_10_">
	<g id="XMLID_6_">
		<path id="XMLID_708_" class="st0" d="M-0.6,284.9h-111.1c-4.1,0-7.4-3.3-7.4-7.4V180c0-34.7,28.2-62.9,62.9-62.9
			S6.7,145.3,6.7,180v97.5C6.7,281.6,3.4,284.9-0.6,284.9z M-104.4,270.2H-8v-90.1c0-26.6-21.6-48.2-48.2-48.2s-48.2,21.6-48.2,48.2
			C-104.4,180.1-104.4,270.2-104.4,270.2z"/>
	</g>
	<g id="XMLID_19_">
		<path id="XMLID_707_" class="st0" d="M-75,180.1h-14.7c0-18.5,15-33.5,33.5-33.5v14.7C-66.5,161.3-75,169.7-75,180.1z"/>
	</g>
	<g id="XMLID_11_">
		<path id="XMLID_777_" class="st0" d="M15.4,298.7h-143.2c-5.1,0-9.3-4.2-9.3-9.3v-11.6c0-5.1,4.2-9.3,9.3-9.3H15.4
			c5.1,0,9.3,4.2,9.3,9.3v11.6C24.7,294.5,20.6,298.7,15.4,298.7z"/>
	</g>
	<g id="XMLID_9_">
		<rect id="XMLID_776_" x="-98" y="287.7" class="st0" width="30.5" height="28.7"/>
	</g>
	<g id="XMLID_8_">
		<rect id="XMLID_775_" x="-48.1" y="287.7" class="st0" width="30.5" height="28.7"/>
	</g>
	<g id="XMLID_12_">
		<rect id="XMLID_706_" x="-90.1" y="308.3" class="st0" width="14.7" height="80.7"/>
	</g>
	<g id="XMLID_13_">
		<rect id="XMLID_705_" x="-40.2" y="302.1" class="st0" width="14.7" height="118.9"/>
	</g>
</g>
<line id="XMLID_23_" class="st1" x1="56.3" y1="128.8" x2="20.7" y2="149.3"/>
<line id="XMLID_22_" class="st1" x1="-56.5" y1="61.5" x2="-56.5" y2="102.5"/>
<line id="XMLID_21_" class="st1" x1="9.8" y1="80.2" x2="-10.7" y2="115.8"/>
<line id="XMLID_15_" class="st1" x1="75" y1="193" x2="34" y2="193"/>
<line id="XMLID_4_" class="st1" x1="-168.8" y1="128.8" x2="-133.2" y2="149.3"/>
<line id="XMLID_3_" class="st1" x1="-56.5" y1="61.5" x2="-56.5" y2="102.5"/>
<line id="XMLID_2_" class="st1" x1="-122.2" y1="80.2" x2="-101.7" y2="115.8"/>
<line id="XMLID_1_" class="st1" x1="-188" y1="193" x2="-147" y2="193"/>
</svg>
