<svg version="1.1" id="Capa_1" xmlns="http://www.w3.org/2000/svg" xmlns:xlink="http://www.w3.org/1999/xlink" x="0px" y="0px"
viewBox="0 0 207.3 145.2" style="enable-background:new 0 0 207.3 145.2;" xml:space="preserve">
	<line id="XMLID_127_" class="st0" x1="103.6" y1="0" x2="0" y2="55.4"/>
	<line id="XMLID_126_" class="st0" x1="103.6" y1="0" x2="51.8" y2="55.4"/>
	<path id="XMLID_125_" class="st0" d="M103.6,55.4"/>
	<line id="XMLID_124_" class="st0" x1="103.6" y1="0" x2="155.4" y2="55.4"/>
	<line id="XMLID_123_" class="st0" x1="103.6" y1="0" x2="207.2" y2="55.4"/>
	<line id="XMLID_122_" class="st0" x1="0" y1="55.4" x2="39.6" y2="143.6"/>
	<line id="XMLID_121_" class="st0" x1="51.8" y1="55.4" x2="39.6" y2="143.6"/>
	<line id="XMLID_120_" class="st0" x1="39.6" y1="143.6" x2="103.6" y2="55.4"/>
	<line id="XMLID_119_" class="st0" x1="39.6" y1="143.6" x2="155.4" y2="55.4"/>
	<line id="XMLID_118_" class="st0" x1="39.6" y1="143.6" x2="207.2" y2="55.4"/>
	<line id="XMLID_117_" class="st0" x1="81.8" y1="143.6" x2="0" y2="55.4"/>
	<line id="XMLID_116_" class="st0" x1="125.5" y1="143.6" x2="51.8" y2="55.4"/>
	<path id="XMLID_115_" class="st0" d="M103.6,56.1"/>
	<line id="XMLID_113_" class="st0" x1="81.8" y1="143.6" x2="51.8" y2="55.4"/>
	<line id="XMLID_112_" class="st0" x1="81.8" y1="143.6" x2="103.6" y2="55.4"/>
	<line id="XMLID_111_" class="st0" x1="81.8" y1="143.6" x2="155.4" y2="55.4"/>
	<line id="XMLID_110_" class="st0" x1="81.8" y1="143.6" x2="207.2" y2="55.4"/>
	<line id="XMLID_109_" class="st0" x1="0" y1="55.4" x2="125.5" y2="143.6"/>
	<line id="XMLID_108_" class="st0" x1="125.5" y1="143.6" x2="103.6" y2="55.4"/>
	<line id="XMLID_107_" class="st0" x1="125.5" y1="143.6" x2="155.4" y2="55.4"/>
	<line id="XMLID_106_" class="st0" x1="125.5" y1="143.6" x2="207.2" y2="55.4"/>
	<line id="XMLID_105_" class="st0" x1="167.7" y1="143.6" x2="0" y2="55.4"/>
	<line id="XMLID_104_" class="st0" x1="167.7" y1="143.6" x2="51.8" y2="55.4"/>
	<path id="XMLID_72_" class="st0" d="M103.6,55.4"/>
	<line id="XMLID_70_" class="st0" x1="155.4" y1="55.4" x2="167.7" y2="143.6"/>
	<line id="XMLID_69_" class="st0" x1="167.7" y1="143.6" x2="207.2" y2="55.4"/>
	<line id="XMLID_68_" class="st0" x1="103.6" y1="55.4" x2="167.7" y2="143.6"/>
	<line id="XMLID_67_" class="st0" x1="103.6" y1="0" x2="103.6" y2="55.4"/>
</svg>