<?xml version="1.0" encoding="utf-8"?>
<!-- Generator: Adobe Illustrator 19.0.0, SVG Export Plug-In . SVG Version: 6.00 Build 0)  -->
<svg version="1.1" id="Layer_1" xmlns="http://www.w3.org/2000/svg" xmlns:xlink="http://www.w3.org/1999/xlink" x="0px" y="0px"
	 viewBox="0 0 159.3 137.4" style="enable-background:new 0 0 159.3 137.4;" xml:space="preserve">
<style type="text/css">
	.st0{fill-rule:evenodd;clip-rule:evenodd;fill:#3D3D3D;}
	.st1{fill-rule:evenodd;clip-rule:evenodd;fill:#7D827D;}
	.st2{fill-rule:evenodd;clip-rule:evenodd;fill:#5E5E5E;}
	.st3{fill-rule:evenodd;clip-rule:evenodd;fill:#DBDBDB;}
	.st4{opacity:0.2;}
	.st5{fill-rule:evenodd;clip-rule:evenodd;fill:#FFFFFF;}
	.st6{fill:#1CBB9B;}
	.st7{fill:#033E52;}
	.st8{fill-rule:evenodd;clip-rule:evenodd;fill:#E8E9E8;}
	.st9{fill:#FFFFFF;}
	.st10{fill:#F2F2F2;}
	.st11{fill:#14725C;}
	.st12{fill:#29D6AD;}
</style>
<g>
	<path class="st0" d="M83.7,130.9H20.8V52c0-2.4,1.9-4.3,4.3-4.3h58.5h55.3c2.4,0,4.3,1.9,4.3,4.3v78.9H83.7z"/>
</g>
<g>
	<path class="st1" d="M159.3,130.9c0,3.6-2.8,6.4-6.3,6.4h-142c-3.5,0-6.3-2.9-6.3-6.4H159.3z"/>
</g>
<g>
	<path class="st2" d="M5.9,134.6c1.1,1.7,3,2.7,5.2,2.7h142c2.1,0,4-1.1,5.2-2.7H5.9z"/>
</g>
<g>
	<path class="st3" d="M25.4,125.8V52.9h113.3v72.9H25.4z"/>
</g>
<g class="st4">
	<path class="st5" d="M25.4,125.8V52.9h113.3"/>
</g>
<g>
	<polyline class="st6" points="75.5,89.1 58.5,117.5 72.5,117.5 88,93.7 	"/>
</g>
<g>
	<polyline class="st7" points="76.6,87.6 58.5,117.5 57.2,112.3 71.8,82.4 	"/>
</g>
<g>
	<path class="st8" d="M93,130.9c0,1.2-1,2.1-2.2,2.1H73.3c-1.2,0-2.2-1-2.2-2.1H93z"/>
</g>
<g>
	<path class="st9" d="M110.5,66.2L82.3,52.3c-7.4-3.5-17.4-10.5-26.8-19.1C54.8,45.4,48.9,65.6,36.9,85c4.8,0.4,13.3,1.4,19.8,2.6
		c26.7,4.8,33.5,7.4,39.1,9.6c5.6,2.1,15.1,1.8,20-11.7C120.8,71.9,110.5,66.2,110.5,66.2z"/>
</g>
<g>
	<path class="st6" d="M38.1,85.1c10-15.5,16.2-33.4,17.4-51.8c-10.4-9.5-15.7-17-15.7-17L15.5,86.1C15.5,86.1,21,83.7,38.1,85.1z"/>
</g>
<g>
	<path class="st10" d="M78.9,58.3C91.4,64.5,104,70.8,117,76c-0.1-0.4-0.1-0.8-0.2-1.1c-11.8-5.8-23.2-12.5-35.1-18.2
		c-13.8-6.6-14.4-6.1-27-14.8c-0.3,2.3-0.7,4.8-1.2,7.3C67.1,51.8,66.6,52.3,78.9,58.3z"/>
</g>
<g>
	<path class="st6" d="M110.5,66.2l-5.1-2.5c0,0.6,0,1.2-0.1,1.8c-0.8,11.7-5.8,22.5-14,29.9c2.2,0.9,3.4,1.2,4.6,1.7
		c5.6,2.1,15.1,1.8,20-11.7C120.8,71.9,110.5,66.2,110.5,66.2z"/>
</g>
<g>
	<path class="st11" d="M34.4,53.2c-6.5,18.9-15.5,32.9-20.2,31.3c-4.7-1.6-3.3-18.2,3.1-37.1c6.5-18.9,15.5-32.9,20.2-31.3
		C42.2,17.8,40.8,34.4,34.4,53.2z"/>
</g>
<g>
	<polyline class="st12" points="22,61.6 28.9,66.9 36.9,39.5 29.7,39.1 	"/>
</g>
<g>
	<ellipse transform="matrix(0.9462 0.3235 -0.3235 0.9462 17.6705 -5.6461)" class="st9" cx="25.8" cy="50.3" rx="3" ry="11.9"/>
</g>
<g>
	<g>
		<path class="st9" d="M14.6,86.1c-0.3,0-0.7-0.1-1-0.2c-6.5-2.2-3.8-21.3,2.2-39C21.3,31,30.2,14.1,37,14.5c0.3,0,0.7,0.1,1,0.2
			c3.1,1.1,4.3,5.6,3.6,13.6c-0.6,7.1-2.7,16.1-5.8,25.4C30.3,69.7,21.4,86.6,14.6,86.1z M36.8,17.5C33.7,17.3,25.5,28,18.7,47.9
			c-6.8,20-7,34.2-4.1,35.2c0.1,0,0.1,0,0.2,0c3.1,0.2,11.3-10.5,18.1-30.4c3.1-9,5.1-17.8,5.7-24.7c0.6-7.7-0.7-10.2-1.6-10.5
			C37,17.5,36.9,17.5,36.8,17.5z"/>
	</g>
</g>
<g>
	<path class="st6" d="M48.7,20.6c-0.4,0-0.8-0.3-1-0.7C46,14,43.5,10.5,40.3,9.6c-4.5-1.3-9,2.6-9,2.7c-0.4,0.4-1,0.3-1.4-0.1
		c-0.4-0.4-0.3-1,0.1-1.4c0.2-0.2,5.4-4.7,10.9-3.1c4,1.1,6.9,5.1,8.9,11.7c0.2,0.5-0.1,1.1-0.7,1.2C48.9,20.6,48.8,20.6,48.7,20.6z
		"/>
</g>
<g>
	<path class="st6" d="M50.7,10.5c-0.4,0-0.8-0.2-0.9-0.6c-1.5-3.8-3.7-6.2-6.3-7.3c-3.2-1.3-6.1-0.1-6.1-0.1c-0.5,0.2-1.1,0-1.3-0.5
		c-0.2-0.5,0-1.1,0.5-1.3c0.1-0.1,3.7-1.6,7.7,0.1c3.1,1.3,5.6,4.1,7.4,8.4c0.2,0.5,0,1.1-0.5,1.3C50.9,10.5,50.8,10.5,50.7,10.5z"
		/>
</g>
<g>
	<path class="st6" d="M16.3,92.5c-4.7,0-8.1-1.3-10.2-3.8c-3.6-4.4-1.6-10.9-1.5-11.2c0.2-0.5,0.7-0.8,1.3-0.6
		c0.5,0.2,0.8,0.7,0.6,1.3c0,0.1-1.8,5.8,1.1,9.3c2.2,2.6,6.4,3.5,12.5,2.8c0.5-0.1,1,0.3,1.1,0.9c0.1,0.5-0.3,1-0.9,1.1
		C18.9,92.5,17.6,92.5,16.3,92.5z"/>
</g>
<g>
	<path class="st6" d="M13.2,99.1c-4.4,0-7.8-1.2-10.1-3.4c-3.1-3-3.1-6.9-3.1-7c0-0.6,0.4-1,1-1c0,0,0,0,0,0c0.6,0,1,0.4,1,1
		c0,0.1,0.1,3.2,2.5,5.6c2,2,5.1,3,9.2,2.8c0.6,0,1,0.4,1,1c0,0.6-0.4,1-1,1C13.6,99.1,13.4,99.1,13.2,99.1z"/>
</g>
</svg>
