<?xml version="1.0" encoding="utf-8"?>
<!-- Generator: Adobe Illustrator 19.0.0, SVG Export Plug-In . SVG Version: 6.00 Build 0)  -->
<svg version="1.1" id="Capa_1" xmlns="http://www.w3.org/2000/svg" xmlns:xlink="http://www.w3.org/1999/xlink" x="0px" y="0px"
	 viewBox="-215 168.8 207.3 145.2" style="enable-background:new -215 168.8 207.3 145.2;" xml:space="preserve">
<style type="text/css">
	.st0{fill:none;stroke:#FFFFFF;stroke-width:0.5;stroke-miterlimit:10;}
	.st1{stroke:#FFFFFF;stroke-width:0.5;stroke-miterlimit:10;}
</style>
<line id="XMLID_127_" class="st0" x1="-111.4" y1="168.8" x2="-215" y2="224.2"/>
<line id="XMLID_126_" class="st0" x1="-111.4" y1="168.8" x2="-163.2" y2="224.2"/>
<path id="XMLID_125_" class="st1" d="M-111.4,224.2"/>
<line id="XMLID_124_" class="st0" x1="-111.4" y1="168.8" x2="-59.6" y2="224.2"/>
<line id="XMLID_123_" class="st0" x1="-111.4" y1="168.8" x2="-7.8" y2="224.2"/>
<line id="XMLID_122_" class="st0" x1="-215" y1="224.2" x2="-175.4" y2="312.4"/>
<line id="XMLID_121_" class="st0" x1="-163.2" y1="224.2" x2="-175.4" y2="312.4"/>
<line id="XMLID_120_" class="st0" x1="-175.4" y1="312.4" x2="-111.4" y2="224.2"/>
<line id="XMLID_119_" class="st0" x1="-175.4" y1="312.4" x2="-59.6" y2="224.2"/>
<line id="XMLID_118_" class="st0" x1="-175.4" y1="312.4" x2="-7.8" y2="224.2"/>
<line id="XMLID_117_" class="st0" x1="-133.2" y1="312.4" x2="-215" y2="224.2"/>
<line id="XMLID_116_" class="st0" x1="-89.5" y1="312.4" x2="-163.2" y2="224.2"/>
<path id="XMLID_115_" class="st1" d="M-111.4,224.9"/>
<line id="XMLID_113_" class="st0" x1="-133.2" y1="312.4" x2="-163.2" y2="224.2"/>
<line id="XMLID_112_" class="st0" x1="-133.2" y1="312.4" x2="-111.4" y2="224.2"/>
<line id="XMLID_111_" class="st0" x1="-133.2" y1="312.4" x2="-59.6" y2="224.2"/>
<line id="XMLID_110_" class="st0" x1="-133.2" y1="312.4" x2="-7.8" y2="224.2"/>
<line id="XMLID_109_" class="st0" x1="-215" y1="224.2" x2="-89.5" y2="312.4"/>
<line id="XMLID_108_" class="st0" x1="-89.5" y1="312.4" x2="-111.4" y2="224.2"/>
<line id="XMLID_107_" class="st0" x1="-89.5" y1="312.4" x2="-59.6" y2="224.2"/>
<line id="XMLID_106_" class="st0" x1="-89.5" y1="312.4" x2="-7.8" y2="224.2"/>
<line id="XMLID_105_" class="st0" x1="-47.3" y1="312.4" x2="-215" y2="224.2"/>
<line id="XMLID_104_" class="st0" x1="-47.3" y1="312.4" x2="-163.2" y2="224.2"/>
<path id="XMLID_72_" class="st1" d="M-111.4,224.2"/>
<line id="XMLID_70_" class="st0" x1="-59.6" y1="224.2" x2="-47.3" y2="312.4"/>
<line id="XMLID_69_" class="st0" x1="-47.3" y1="312.4" x2="-7.8" y2="224.2"/>
<line id="XMLID_68_" class="st0" x1="-111.4" y1="224.2" x2="-47.3" y2="312.4"/>
<line id="XMLID_67_" class="st0" x1="-111.4" y1="168.8" x2="-111.4" y2="224.2"/>
</svg>
