<?xml version="1.0" encoding="utf-8"?>
<!-- Generator: Adobe Illustrator 19.0.0, SVG Export Plug-In . SVG Version: 6.00 Build 0)  -->
<svg version="1.1" id="Layer_1" xmlns="http://www.w3.org/2000/svg" xmlns:xlink="http://www.w3.org/1999/xlink" x="0px" y="0px"
	 viewBox="0 0 1096 780" style="enable-background:new 0 0 1096 780;" xml:space="preserve">
<style type="text/css">
	.st0{fill:#263239;}
	.st1{fill:#34B297;}
	.st2{fill:#341D16;}
	.st3{fill:#FFFFFF;}
</style>
<path class="st0" d="M729,624.2c0,0-34.3,0-40.9,0h-105c-6.6,0-54.1-0.6-54.1-0.6s49.5-22.5,50.1-70.4c0.1-8-2.6-11.6,4-11.6H685
	l-2,11.6C683.5,603.2,729,624.2,729,624.2z"/>
<path class="st0" d="M879.6,541.2c0,6.6-5.4,12-12,12h-474c-6.6,0-12-5.4-12-12v-312c0-6.6,5.4-12,12-12h474c6.6,0,12,5.4,12,12
	V541.2z"/>
<path class="st1" d="M865.6,506.7c0,4.1-5.5,7.4-12.3,7.4H409.9c-6.8,0-12.3-3.3-12.3-7.4V240.1c0-4.1,5.5-7.4,12.3-7.4h443.3
	c6.8,0,12.3,3.3,12.3,7.4V506.7z"/>
<path class="st0" d="M479.6,605.3c0,6.8-5.4,12.4-12,12.4h-315c-6.6,0-12-5.6-12-12.4V397.6c0-6.8,5.4-12.4,12-12.4h315
	c6.6,0,12,5.6,12,12.4V605.3z"/>
<path class="st1" d="M467.6,588.4c0,6.2-7.9,11.1-17.7,11.1H170.4c-9.8,0-17.7-5-17.7-11.1V412.8c0-6.2,7.9-11.1,17.7-11.1h279.5
	c9.8,0,17.7,5,17.7,11.1V588.4z"/>
<path class="st0" d="M498.5,617.3c0,4-5.1,7.2-11.5,7.2H137c-6.3,0-11.5-3.2-11.5-7.2v-2.2c0-4,5.1-7.2,11.5-7.2h350
	c6.3,0,11.5,3.2,11.5,7.2V617.3z"/>
<path class="st2" d="M357.5,610.2c0,1.3-1,2.3-2.3,2.3h-88.7c-1.3,0-2.3-1-2.3-2.3l0,0c0-1.3,1-2.3,2.3-2.3h88.7
	C356.5,607.9,357.5,609,357.5,610.2L357.5,610.2z"/>
<path class="st0" d="M1035,610.9c0,6.6-5.4,12-12,12H811c-6.6,0-12-5.4-12-12V474.2c0-6.6,5.4-12,12-12h212c6.6,0,12,5.4,12,12
	V610.9z"/>
<path class="st1" d="M1021,598.9c0,6.6-5.1,12-11.5,12h-181c-6.3,0-11.5-5.4-11.5-12V486.2c0-6.6,5.1-12,11.5-12h181
	c6.3,0,11.5,5.4,11.5,12V598.9z"/>
<circle class="st3" cx="808" cy="542.6" r="4.4"/>
<circle class="st3" cx="314.5" cy="394.6" r="4"/>
<circle class="st3" cx="633" cy="535.6" r="7"/>
<path class="st0" d="M1096,633.9c0,3.9-3.2,7.1-7.2,7.1H7.2c-4,0-7.2-3.2-7.2-7.1l0,0c0-3.9,3.2-7.1,7.2-7.1h1081.6
	C1092.8,626.8,1096,629.9,1096,633.9L1096,633.9z"/>
<path class="st0" d="M779,614.3c0,6.9-6.5,12.5-14.5,12.5h-45.9c-8,0-14.5-5.6-14.5-12.5V500.8c0-6.9,6.5-12.5,14.5-12.5h45.9
	c8,0,14.5,5.6,14.5,12.5V614.3z"/>
<path class="st3" d="M737.8,618.7c0-2.1,1.7-3.9,3.9-3.9l0,0c2.1,0,3.9,1.7,3.9,3.9l0,0c0,2.1-1.7,3.9-3.9,3.9l0,0
	C739.5,622.5,737.8,620.8,737.8,618.7L737.8,618.7z"/>
<rect x="709.7" y="497.7" class="st1" width="64" height="114.9"/>
</svg>
