<?xml version="1.0" encoding="utf-8"?>
<!-- Generator: Adobe Illustrator 19.0.0, SVG Export Plug-In . SVG Version: 6.00 Build 0)  -->
<svg version="1.1" id="Capa_1" xmlns="http://www.w3.org/2000/svg" xmlns:xlink="http://www.w3.org/1999/xlink" x="0px" y="0px"
	 viewBox="0 0 233.8 233.8" style="enable-background:new 0 0 233.8 233.8;" xml:space="preserve">
<style type="text/css">
	.st0{fill:#1CBB9B;stroke:#263238;stroke-miterlimit:10;}
	.st1{fill:#333030;stroke:#263238;stroke-miterlimit:10;}
</style>
<path id="XMLID_40_" class="st0" d="M43.6,220.8L14.9,193c-4.7-4.6-4.8-12.2-0.2-17l64-65.7c4.6-4.7,12.2-4.8,17-0.2l28.6,27.9
	c4.7,4.6,4.8,12.2,0.2,17l-64,65.7C55.9,225.3,48.3,225.4,43.6,220.8z"/>
<path class="st1" d="M122.6,126l-14.9-14.9L178.9,40l-3.6-12.4l32.3-19.4l17.9,18l-19.4,32.3l-12.4-3.6L122.6,126z M116.3,111.1
	l6.4,6.4L192,48.2l11.4,3.3L218,27.1l-11.3-11.3l-24.4,14.6l3.3,11.4L116.3,111.1z"/>
<polygon class="st1" points="128.6,127.8 106,105.1 95.2,109.4 124.4,138.6 "/>
<path class="st1" d="M51.6,224.8c-3.8,0-7.4-1.5-10.1-4.2l-28.3-28.3c-5.6-5.6-5.6-14.7,0-20.3l64.3-64.3c2.7-2.7,6.3-4.2,10.1-4.2
	c3.8,0,7.4,1.5,10.1,4.2L126,136c5.6,5.6,5.6,14.7,0,20.3l-64.3,64.3C59,223.3,55.4,224.8,51.6,224.8z M87.6,109.5
	c-2.2,0-4.3,0.9-5.9,2.4l-64.3,64.3c-3.3,3.3-3.3,8.5,0,11.8l28.3,28.3c1.6,1.6,3.7,2.4,5.9,2.4c2.2,0,4.3-0.9,5.9-2.4l64.3-64.3
	c3.3-3.3,3.3-8.5,0-11.8L93.5,112C91.9,110.4,89.9,109.5,87.6,109.5z"/>
<g>
	<rect x="65.3" y="123.2" transform="matrix(0.7071 0.7071 -0.7071 0.7071 136.9924 0.1265)" class="st1" width="6" height="84.5"/>
	<g>
		
			<rect x="52.4" y="110.2" transform="matrix(0.7071 0.7071 -0.7071 0.7071 124.0196 5.5014)" class="st1" width="6" height="84.5"/>
		
			<rect x="78.3" y="136.1" transform="matrix(0.7071 0.7071 -0.7071 0.7071 149.9669 -5.2476)" class="st1" width="6" height="84.5"/>
	</g>
</g>
<g>
	<path class="st1" d="M74,101.9L61.4,89.4C45.3,95,27.3,91.2,15,79.6C5.8,71,0.7,59.4,0.5,46.8c0-2.4,1.4-4.5,3.6-5.4
		c2.2-0.9,4.7-0.4,6.4,1.2l12.2,12.2c1.6,1.6,4.1,2.3,6.3,1.7l18.1-4.9c2.2-0.6,4-2.4,4.6-4.6L56.6,29c0.6-2.2,0-4.7-1.7-6.3
		L42.7,10.5C41,8.8,40.5,6.3,41.4,4c0.9-2.2,3-3.5,5.3-3.5c0,0,0,0,0.1,0c12,0.1,23.3,4.9,31.8,13.4c12.2,12.2,16.4,30.2,11.1,46.5
		l29.9,29.9l-4.2,4.2L82.8,62l0.7-1.8c5.4-14.6,1.8-31.1-9.1-42C67.1,10.9,57.5,6.7,47.2,6.5l11.9,11.9c3.2,3.2,4.4,7.8,3.2,12.1
		l-4.9,18.1c-1.2,4.3-4.6,7.7-8.9,8.9l-18.1,4.9c-4.3,1.2-8.9-0.1-12.1-3.2L6.5,47.2c0.3,10.7,4.7,20.7,12.5,28.1
		c11.1,10.5,27.6,13.5,42,7.8l1.8-0.7l15.3,15.3L74,101.9z"/>
	<path class="st1" d="M187,233.3C187,233.3,187,233.3,187,233.3c-12.1-0.1-23.4-4.9-31.9-13.4c-12.5-12.5-16.7-31-10.8-47.6
		l-12.9-12.9l4.2-4.2l15.6,15.6l-0.7,1.8c-6,14.8-2.5,31.7,8.8,43c7.3,7.3,16.9,11.4,27.2,11.6l-11.9-11.9
		c-3.2-3.2-4.4-7.8-3.2-12.1l4.9-18.1c1.2-4.3,4.6-7.7,8.9-8.9l18.1-4.9c4.3-1.2,9,0.1,12.1,3.2l11.9,11.9
		c-0.3-10.7-4.7-20.7-12.5-28.1c-10.8-10.2-27-13.4-41.1-8.2l-1.8,0.7l-32.6-32.6l4.2-4.2l29.9,29.9c15.8-5.1,33.4-1.2,45.4,10.1
		c9.2,8.6,14.3,20.3,14.5,32.8c0,2.4-1.4,4.5-3.6,5.4c-2.2,0.9-4.7,0.4-6.4-1.2l-12.2-12.2c-1.6-1.6-4.1-2.3-6.3-1.7l-18.1,4.9
		c-2.2,0.6-4,2.4-4.6,4.6l-4.9,18.1c-0.6,2.2,0,4.7,1.7,6.3l12.2,12.2c1.7,1.7,2.2,4.2,1.2,6.4C191.4,231.9,189.4,233.3,187,233.3z"
		/>
	<rect x="69.8" y="82.4" transform="matrix(0.7071 0.7071 -0.7071 0.7071 85.5106 -35.6187)" class="st1" width="31.9" height="6"/>
	
		<rect x="132.9" y="145.2" transform="matrix(0.7071 0.7071 -0.7071 0.7071 148.3291 -61.6401)" class="st1" width="31.3" height="6"/>
</g>
</svg>
